<svg width="32" height="32" viewBox="0 0 32 32" fill="none" xmlns="http://www.w3.org/2000/svg">
<path d="M10.7032 24.9612C10.7032 25.0894 10.5548 25.1919 10.3677 25.1919C10.1548 25.2112 10.0065 25.1086 10.0065 24.9612C10.0065 24.833 10.1548 24.7304 10.3419 24.7304C10.5355 24.7112 10.7032 24.8137 10.7032 24.9612ZM8.69677 24.6727C8.65161 24.8009 8.78065 24.9483 8.97419 24.9868C9.14194 25.0509 9.33548 24.9868 9.37419 24.8586C9.4129 24.7304 9.29032 24.583 9.09677 24.5253C8.92903 24.4804 8.74194 24.5445 8.69677 24.6727ZM11.5484 24.5637C11.3613 24.6086 11.2323 24.7304 11.2516 24.8778C11.271 25.006 11.4387 25.0894 11.6323 25.0445C11.8194 24.9996 11.9484 24.8778 11.929 24.7496C11.9097 24.6278 11.7355 24.5445 11.5484 24.5637ZM15.7935 0C6.84516 0 0 6.7499 0 15.6408C0 22.7496 4.50323 28.8329 10.9355 30.9739C11.7613 31.1213 12.0516 30.6149 12.0516 30.1983C12.0516 29.8008 12.0323 27.6085 12.0323 26.2624C12.0323 26.2624 7.51613 27.2239 6.56774 24.3522C6.56774 24.3522 5.83226 22.4868 4.77419 22.0061C4.77419 22.0061 3.29677 20.9997 4.87742 21.0189C4.87742 21.0189 6.48387 21.1471 7.36774 22.6727C8.78064 25.147 11.1484 24.4355 12.071 24.0125C12.2194 22.9868 12.6387 22.2753 13.1032 21.8522C9.49677 21.4548 5.85806 20.9356 5.85806 14.769C5.85806 13.0062 6.34839 12.1216 7.38065 10.9934C7.2129 10.5768 6.66452 8.85884 7.54839 6.64092C8.89677 6.22426 12 8.37167 12 8.37167C13.2903 8.0127 14.6774 7.8268 16.0516 7.8268C17.4258 7.8268 18.8129 8.0127 20.1032 8.37167C20.1032 8.37167 23.2065 6.21785 24.5548 6.64092C25.4387 8.86525 24.8903 10.5768 24.7226 10.9934C25.7548 12.128 26.3871 13.0126 26.3871 14.769C26.3871 20.9548 22.5871 21.4484 18.9806 21.8522C19.5742 22.3586 20.0774 23.3202 20.0774 24.8265C20.0774 26.9868 20.0581 29.6598 20.0581 30.1854C20.0581 30.6021 20.3548 31.1085 21.1742 30.9611C27.6258 28.8329 32 22.7496 32 15.6408C32 6.7499 24.7419 0 15.7935 0ZM6.27097 22.1086C6.1871 22.1727 6.20645 22.3202 6.31613 22.442C6.41935 22.5445 6.56774 22.5894 6.65161 22.5061C6.73548 22.442 6.71613 22.2945 6.60645 22.1727C6.50323 22.0702 6.35484 22.0253 6.27097 22.1086ZM5.57419 21.5894C5.52903 21.6727 5.59355 21.7753 5.72258 21.8394C5.82581 21.9035 5.95484 21.8843 6 21.7945C6.04516 21.7112 5.98064 21.6086 5.85161 21.5445C5.72258 21.5061 5.61935 21.5253 5.57419 21.5894ZM7.66452 23.8714C7.56129 23.9548 7.6 24.1471 7.74839 24.2689C7.89677 24.4163 8.08387 24.4355 8.16774 24.333C8.25161 24.2496 8.2129 24.0573 8.08387 23.9355C7.94194 23.7881 7.74839 23.7689 7.66452 23.8714ZM6.92903 22.9291C6.82581 22.9932 6.82581 23.1599 6.92903 23.3073C7.03226 23.4548 7.20645 23.5189 7.29032 23.4548C7.39355 23.3714 7.39355 23.2048 7.29032 23.0573C7.2 22.9099 7.03226 22.8458 6.92903 22.9291Z" fill="black"/>
<g clip-path="url(#clip0_1_46)">
<path d="M27.1152 25.9715L26.7362 26.4563H27.3516H27.8928C28.0268 26.4563 28.1527 26.5084 28.2451 26.6008L31.5543 29.91C31.5545 29.9102 31.5546 29.9103 31.5548 29.9105C31.7473 30.1056 31.7471 30.4208 31.5521 30.6158L30.6125 31.5554L30.6113 31.5566C30.4206 31.7494 30.1067 31.751 29.9112 31.5554L26.6008 28.2451C26.5084 28.1527 26.4563 28.0268 26.4563 27.8928V27.3516V26.7362L25.9715 27.1152C24.8504 27.9917 23.4408 28.5125 21.9062 28.5125C18.2569 28.5125 15.3 25.5556 15.3 21.9062C15.3 18.2569 18.2569 15.3 21.9062 15.3C25.5556 15.3 28.5125 18.2569 28.5125 21.9062C28.5125 23.4408 27.9917 24.8504 27.1152 25.9715ZM17.3563 21.9062C17.3563 24.4229 19.3933 26.4563 21.9062 26.4563C24.4229 26.4563 26.4563 24.4192 26.4563 21.9062C26.4563 19.3896 24.4192 17.3563 21.9062 17.3563C19.3896 17.3563 17.3563 19.3933 17.3563 21.9062Z" fill="white" stroke="black" stroke-width="0.6"/>
</g>
<defs>
<clipPath id="clip0_1_46">
<rect width="17" height="17" fill="white" transform="translate(15 15)"/>
</clipPath>
</defs>
</svg>
